<svg xmlns="http://www.w3.org/2000/svg" viewBox="0 0 386.66 412.7"><defs><style>.cls-1{fill:#c43638;}.cls-2{fill:#4e4e50;}</style></defs><g id="Layer_2" data-name="Layer 2"><g id="Layer_1-2" data-name="Layer 1"><path class="cls-1" d="M23.59,211.11c-5.79-.3-12.82,3.21-15.75-6.83-2.27-7.82-1.59-12.77,6.12-16.15,2.63-1.15,5.51-2.6,7.23-4.76,2.43-3.05,5.47-6.91,5.41-10.37-.11-5.87.77-13.44-8.27-15.08-2.81-.51-5.39-2.31-8.21-2.84-9.2-1.74-11.39-6.87-9.49-15.72,1.12-5.19,3-7.76,8.18-8.18,3.17-.25,6.3-1.4,9.46-1.46,7.09-.13,10.69-3.25,13-10.26s-.19-11-5.25-14.84c-1.62-1.22-3.07-2.67-4.59-4-7.91-7-8.27-13.49-.72-21.08a8.62,8.62,0,0,1,6.12-1.91c3.43.27,6.79,1.49,10.19,2.27,10.65,2.43,17.3-.73,21.26-10.61.75-1.88.38-4.58-.32-6.61A52.25,52.25,0,0,0,53.15,52.4c-3.75-6.1-3.65-10.61,2.52-15.68C61.54,31.9,66,31.45,71.44,36.5c2.12,2,5,3.16,7,5.17,5.33,5.2,10.13,3.1,15.67.11s7.21-7.07,6.22-12.88c-.39-2.29-.38-4.64-.71-6.94-.94-6.65-.16-11.34,7.87-13.8,7.74-2.38,12.17-.82,15.49,6.11,1.13,2.34,2.86,4.39,4.15,6.66,2.61,4.65,5.68,7.82,11.82,6.45s13.25-.3,14.66-9.17c.41-2.53,1.74-4.91,2.63-7.37,3.92-11,7.77-13,18.85-8.88,2,.72,3.8,3.36,4.49,5.51a44.34,44.34,0,0,1,2.12,12c.22,7.4,4.16,10.26,10.88,12.37s10.42-.59,14-5.26c1.42-1.84,3.29-3.34,4.61-5.24,4.13-5.89,8.47-7.2,15.47-3.63s8.7,7.62,6.22,14.51c-.88,2.44-.84,5.24-1.85,7.61C228,47,232,50.75,237,55.09c5.27,4.55,9.89,5.29,15.61,1.62,1.94-1.25,4.36-1.74,6.28-3,6.45-4.21,11.07-3.33,16.33,2.89s3.5,10.56-.68,15.93c-5.2,6.68-12.74,13.52-4.08,22.5,2.62,2.72,6.75,4.38,10.5,5.48,2.61.76,5.74-.37,8.64-.5,10.61-.48,14.65,3,15,13.79.08,2.17-1.41,4.93-3.06,6.47-2.5,2.35-5.78,3.87-8.72,5.75-4.83,3.11-10,5.4-8.88,13.22s2.72,14.15,11.78,15.57c2,.31,3.8,1.47,5.76,2,6.17,1.62,9.95,3.91,9.19,11.93s-3.48,11.65-11.21,12.1c-2.89.17-5.74,1.06-8.63,1.19-6.72.3-9.1,4.26-10.93,10.26s-.88,10,4,13.59c2.11,1.54,3.81,3.64,5.92,5.16,6.09,4.37,7.48,8.94,3.76,16.26s-8.69,7.34-15,5.47c-8.85-2.6-17.18-5-23.34,5.67-2.66,4.61-3.9,8.08-1.23,12.7,1.31,2.25,2,4.93,3.45,7,5.81,8.17,3.12,14.26-4.87,18.28-2.75,1.38-6.91,1.32-10,.38s-5.93-3.62-8.56-5.9c-5.2-4.5-9.86-5.21-16.46-1.59-6.86,3.76-7.78,8.61-6.85,15.11.29,2,.35,4.06.7,6.07,1,6.15-.1,10.41-7.11,12.6s-12.3,3-15.76-4.87c-1.16-2.63-3.33-4.82-4.5-7.46-3.16-7.14-8.91-6.92-15.35-6.38s-10.23,3.27-11.59,9.62c-.55,2.53-2.16,4.86-2.56,7.4-1.38,8.88-7,9.49-14.58,9.08-8.39-.45-8.75-5.85-9.55-11.82-1.14-8.52-.88-18.45-13.18-18.87-3.54-.12-7.43,1.35-10.64,3.07-2.41,1.29-4,4.11-6,6.28-8.1,9-9.42,9.42-19.44,2.39-2.15-1.51-3.38-5.39-3.62-8.3s1-6.27,2-9.31c2.18-7,1.51-12.07-5.07-17.3S62.7,252,56.46,255.79c-1.73,1-3.86,1.47-5.51,2.61-6.06,4.19-10.15,2.44-14.68-3s-5.94-9.67-.66-15a22.12,22.12,0,0,0,2.53-3.55c3.68-5.57,9.73-10.11,4-18.35C36.82,211,37.47,210.49,23.59,211.11Zm196.17-54.25c.17-35-27.26-63-61.89-63.14S95.22,120.91,95,155c-.28,35.15,27,63.33,61.45,63.56C191.5,218.75,219.59,191.41,219.76,156.86Z"/><path class="cls-2" d="M338.24,396.6c.89,10.67-3.41,15.71-14.4,16.1-1.82.07-4.22-1.59-5.48-3.15-2.73-3.38-4.88-7.22-7.3-10.85-7.17-10.76-19-11.56-27.37-1.87-1.53,1.76-3,3.54-4.55,5.3-7.21,8.39-13.17,8.88-21.51,1.3-1.35-1.24-2-4-1.86-5.95.33-4,1.46-8,2.23-12,2.72-14.28-4.94-22.82-19.23-21.48-2,.19-4.06.33-6.09.44-10.15.55-16.34-5.1-15.86-15,.09-1.86,2-4,3.65-5.33,3.41-2.7,7.22-4.88,10.84-7.32,10.06-6.75,10.87-19,1.8-26.88-1.76-1.53-3.55-3-5.33-4.52-8.91-7.54-9.45-12.39-1.7-21.39,1.34-1.56,4.48-2.37,6.7-2.22,4,.29,7.95,1.59,11.94,2.41,12.82,2.63,22.87-6.44,21.52-19.43-.21-2-.55-4-.73-6.06-.91-10.33,4.3-16.07,14.84-15.77,1.9.05,4.24,1.65,5.52,3.23,2.73,3.38,4.87,7.22,7.29,10.85,6.49,9.72,19.44,10.69,27.09,2,1.54-1.74,3-3.54,4.53-5.31,7.21-8.4,13.91-9,21.61-1.32,1.48,1.48,1.95,4.69,1.74,7-.38,4.31-1.62,8.55-2.49,12.82-2,9.89,6.21,19.64,16.4,19.41,2.62-.05,5.24-.24,7.84-.48,12.65-1.14,12.44-1.09,16.17,11,1.49,4.83.27,7.72-3.93,10.06-3.29,1.85-6.39,4-9.54,6.14a16.67,16.67,0,0,0-2,26.47,67.06,67.06,0,0,0,6.6,5.7c5.85,4,7.51,8.13,4.06,15.33-3.58,7.45-7.94,8.7-15.14,6.7-7.62-1.45-15.94-4.15-22.75,3.61C335.26,382.4,338.1,394.86,338.24,396.6Zm-9-69c-.07-14.74-12.88-27.26-27.55-26.93s-26.61,12.6-26.56,27a27.26,27.26,0,0,0,27.48,26.89C317,354.25,329.3,341.83,329.23,327.56Z"/></g></g></svg>