<svg xmlns="http://www.w3.org/2000/svg" width="29.663" height="29.705" viewBox="0 0 29.663 29.705">
  <g id="Group_105" data-name="Group 105" transform="translate(-880.529 -589.159)">
    <path id="Path_135" data-name="Path 135" d="M471.253,184.676a6.716,6.716,0,0,1,5.309,5.308M471.253,179.3a12.1,12.1,0,0,1,10.685,10.671M480.594,200.7v4.032a2.688,2.688,0,0,1-2.678,2.7,2.5,2.5,0,0,1-.252-.011,26.6,26.6,0,0,1-11.6-4.121A26.23,26.23,0,0,1,458,195.231a26.6,26.6,0,0,1-4.125-11.657,2.689,2.689,0,0,1,2.434-2.92c.08-.007.16-.01.239-.01h4.032a2.687,2.687,0,0,1,2.689,2.311,17.175,17.175,0,0,0,.941,3.782,2.69,2.69,0,0,1-.6,2.835l-1.707,1.7a21.505,21.505,0,0,0,8.064,8.064l1.7-1.707a2.69,2.69,0,0,1,2.837-.6,17.225,17.225,0,0,0,3.776.941A2.688,2.688,0,0,1,480.594,200.7Z" transform="translate(427.424 410.688)" fill="none" stroke="#486f88" stroke-linecap="round" stroke-linejoin="round" stroke-width="1.5"/>
  </g>
</svg>
