<svg xmlns="http://www.w3.org/2000/svg" width="30.941" height="30.94" viewBox="0 0 30.941 30.94">
  <g id="Group_114" data-name="Group 114" transform="translate(-984.71 -342.049)">
    <path id="Path_96" data-name="Path 96" d="M539.139,33.93a1.079,1.079,0,0,1-.672-1.149c.03-.966,0-1.934.013-2.9,0-.2-.052-.253-.247-.246-.443.014-.886,0-1.328,0a.9.9,0,0,1,0-1.81c.453,0,.907-.01,1.36,0,.184,0,.214-.055.212-.219-.01-.6,0-1.208,0-1.811a.9.9,0,1,1,1.809.008v1.782c0,.17.021.242.222.242q6.054-.011,12.109,0c.325,0,.416-.11.416-.48V9.62c0-.433-.08-.516-.5-.516H540.572c-.246,0-.294.073-.288.3.017.572,0,1.148,0,1.721a.906.906,0,1,1-1.81.1.774.774,0,0,1,0-.115c0-.564-.013-1.129,0-1.692,0-.24-.037-.333-.3-.316-.42.027-.845.011-1.267,0a.9.9,0,0,1-.011-1.81c.432,0,.866-.013,1.292,0,.218,0,.287-.038.283-.273-.014-1.007,0-2.012,0-3.019a.911.911,0,0,1,1.813-.183.984.984,0,0,1,0,.183c0,1,.008,1.993,0,2.99,0,.249.054.311.308.311,4.005,0,8.013.013,12.019-.018a2.216,2.216,0,0,1,2.247,2.184v.046c-.024,5.988-.011,11.979-.011,17.969a2.1,2.1,0,0,1-1.723,2.128,2.479,2.479,0,0,1-.51.032H540.591c-.249,0-.314.056-.309.308.017.946-.016,1.893.014,2.839a1.08,1.08,0,0,1-.672,1.149Z" transform="translate(460.797 339.049)" fill="#486f88"/>
    <path id="Path_97" data-name="Path 97" d="M527.408,7.744c.1-.072.082-.2.117-.294a2.111,2.111,0,0,1,1.958-1.4h1.207a.907.907,0,0,1,.069,1.813H529.62a.351.351,0,0,0-.4.406V9.3a.907.907,0,0,1-1.758.387.345.345,0,0,0-.053-.066Z" transform="translate(457.308 340.29)" fill="#486f88"/>
    <path id="Path_98" data-name="Path 98" d="M527.41,19.6q.481-.873,1.2-.615a.873.873,0,0,1,.61.841v1.108c0,.276.124.411.4.409h1.108a.9.9,0,0,1,.016,1.807,9.84,9.84,0,0,1-1.537-.023,2.063,2.063,0,0,1-1.735-1.516c-.017-.053,0-.125-.069-.15Z" transform="translate(457.306 345.523)" fill="#486f88"/>
    <path id="Path_99" data-name="Path 99" d="M527.408,11.015c.314-.571.7-.778,1.172-.624a.881.881,0,0,1,.638.883v2.354a.908.908,0,0,1-1.75.39.744.744,0,0,0-.06-.1Z" transform="translate(457.308 342.033)" fill="#486f88"/>
    <path id="Path_100" data-name="Path 100" d="M527.408,15.309c.314-.571.7-.778,1.172-.624a.881.881,0,0,1,.638.883v2.354a.908.908,0,0,1-1.75.39.744.744,0,0,0-.06-.1v-2.9" transform="translate(457.308 343.777)" fill="#486f88"/>
    <path id="Path_101" data-name="Path 101" d="M537.757,15.3V11.739a.907.907,0,1,1,1.811-.082.758.758,0,0,1,0,.082v7.126a.907.907,0,1,1-1.811.082.7.7,0,0,1,0-.082V15.3" transform="translate(461.513 342.216)" fill="#486f88"/>
    <path id="Path_102" data-name="Path 102" d="M533.818,7.863H532.61a.9.9,0,0,1,0-1.81h2.418a.9.9,0,1,1,0,1.81h-1.209Z" transform="translate(459.053 340.29)" fill="#486f88"/>
    <path id="Path_103" data-name="Path 103" d="M533.793,22.466h-1.208a.905.905,0,0,1,0-1.809q1.223-.008,2.446,0a.905.905,0,0,1,0,1.809Z" transform="translate(459.06 346.223)" fill="#486f88"/>
  </g>
</svg>
