<svg width="54" height="54" viewBox="0 0 54 54" fill="none" xmlns="http://www.w3.org/2000/svg">
<path d="M27.226 42.93C27.0016 42.8412 26.8135 42.6797 26.6917 42.4715C26.5699 42.2632 26.5214 42.0201 26.554 41.781C26.584 40.815 26.554 39.847 26.567 38.881C26.567 38.681 26.515 38.628 26.32 38.635C25.877 38.649 25.434 38.635 24.992 38.635C24.752 38.635 24.5218 38.5396 24.3521 38.3699C24.1823 38.2002 24.087 37.97 24.087 37.73C24.087 37.49 24.1823 37.2598 24.3521 37.0901C24.5218 36.9203 24.752 36.825 24.992 36.825C25.445 36.825 25.899 36.815 26.352 36.825C26.536 36.825 26.566 36.77 26.564 36.606C26.554 36.006 26.564 35.398 26.564 34.795C26.5645 34.6762 26.5884 34.5587 26.6344 34.4492C26.6803 34.3396 26.7474 34.2402 26.8317 34.1566C26.9161 34.073 27.0161 34.0068 27.1261 33.9618C27.236 33.9168 27.3537 33.894 27.4725 33.8945C27.5913 33.895 27.7088 33.9189 27.8183 33.9649C27.9279 34.0108 28.0273 34.0779 28.1109 34.1622C28.1945 34.2466 28.2607 34.3466 28.3057 34.4565C28.3507 34.5665 28.3735 34.6842 28.373 34.803V36.585C28.373 36.755 28.394 36.827 28.595 36.827C32.631 36.8197 36.6673 36.8197 40.704 36.827C41.029 36.827 41.12 36.717 41.12 36.347V18.62C41.12 18.187 41.04 18.104 40.62 18.104H28.659C28.413 18.104 28.365 18.177 28.371 18.404C28.388 18.976 28.371 19.552 28.371 20.125C28.3842 20.365 28.3016 20.6005 28.1413 20.7796C27.9809 20.9587 27.756 21.0667 27.516 21.08C27.276 21.0932 27.0405 21.0106 26.8614 20.8503C26.6823 20.6899 26.5743 20.465 26.561 20.225C26.5581 20.1867 26.5581 20.1483 26.561 20.11C26.561 19.546 26.548 18.981 26.561 18.418C26.561 18.178 26.524 18.085 26.261 18.102C25.841 18.129 25.416 18.113 24.994 18.102C24.754 18.1034 24.5232 18.0095 24.3524 17.8408C24.1817 17.6721 24.085 17.4425 24.0835 17.2025C24.0821 16.9625 24.176 16.7317 24.3447 16.5609C24.5134 16.3902 24.743 16.2934 24.983 16.292C25.415 16.292 25.849 16.279 26.275 16.292C26.493 16.292 26.562 16.254 26.558 16.019C26.544 15.012 26.558 14.007 26.558 13C26.5337 12.7596 26.606 12.5194 26.7588 12.3322C26.9116 12.145 27.1326 12.0263 27.373 12.002C27.6134 11.9777 27.8536 12.05 28.0408 12.2028C28.2279 12.3556 28.3467 12.5766 28.371 12.817C28.3767 12.8779 28.3767 12.9391 28.371 13C28.371 14 28.379 14.993 28.371 15.99C28.371 16.239 28.425 16.301 28.679 16.301C32.684 16.301 36.692 16.314 40.698 16.283C41.2856 16.2747 41.8524 16.5001 42.2738 16.9097C42.6951 17.3193 42.9365 17.8794 42.945 18.467V18.513C42.921 24.501 42.934 30.492 42.934 36.482C42.9488 36.9841 42.7831 37.475 42.467 37.8654C42.1509 38.2558 41.7053 38.52 41.211 38.61C41.0426 38.6382 40.8717 38.6489 40.701 38.642H28.678C28.429 38.642 28.364 38.698 28.369 38.95C28.386 39.896 28.353 40.843 28.383 41.789C28.4154 42.028 28.3669 42.2711 28.2451 42.4793C28.1233 42.6876 27.9353 42.849 27.711 42.938L27.226 42.93Z" fill="#486F88"/>
<path d="M12.006 17.985C12.106 17.913 12.088 17.785 12.123 17.691C12.2678 17.2859 12.5329 16.9348 12.8829 16.6846C13.2328 16.4344 13.6508 16.2971 14.0809 16.291H15.288C15.407 16.2865 15.5258 16.3054 15.6375 16.3468C15.7492 16.3882 15.8517 16.4511 15.9391 16.5321C16.0265 16.6131 16.097 16.7105 16.1467 16.8187C16.1965 16.927 16.2244 17.044 16.2289 17.163C16.2335 17.282 16.2145 17.4008 16.1732 17.5125C16.1318 17.6242 16.0688 17.7267 15.9879 17.8141C15.9069 17.9015 15.8095 17.9721 15.7012 18.0218C15.593 18.0715 15.476 18.0995 15.3569 18.104H14.218C14.1629 18.0954 14.1067 18.1001 14.0538 18.1175C14.001 18.135 13.953 18.1648 13.9139 18.2045C13.8748 18.2441 13.8457 18.2925 13.829 18.3457C13.8124 18.3988 13.8085 18.4551 13.8179 18.51V19.541C13.8384 19.7612 13.7778 19.9813 13.6474 20.1599C13.517 20.3385 13.3258 20.4633 13.1099 20.5108C12.8939 20.5584 12.668 20.5254 12.4747 20.418C12.2813 20.3107 12.1338 20.1364 12.0599 19.928C12.045 19.9039 12.0273 19.8817 12.007 19.862L12.006 17.985Z" fill="#486F88"/>
<path d="M12.006 35.074C12.3266 34.492 12.7267 34.287 13.206 34.459C13.3843 34.5153 13.5399 34.6275 13.6497 34.7789C13.7595 34.9303 13.8178 35.113 13.816 35.3V36.408C13.816 36.684 13.94 36.819 14.216 36.817H15.324C15.5637 36.8149 15.7943 36.908 15.9652 37.076C16.1361 37.2439 16.2334 37.4729 16.2355 37.7125C16.2377 37.9521 16.1445 38.1828 15.9766 38.3537C15.8086 38.5247 15.5796 38.6219 15.34 38.624C14.8279 38.6564 14.3139 38.6487 13.803 38.601C13.3958 38.5496 13.0132 38.3778 12.7042 38.1078C12.3951 37.8377 12.1736 37.4816 12.068 37.085C12.051 37.032 12.068 36.96 11.999 36.935L12.006 35.074Z" fill="#486F88"/>
<path d="M12.006 22.999C12.32 22.428 12.706 22.221 13.178 22.375C13.3679 22.4293 13.5341 22.5459 13.6498 22.7061C13.7655 22.8662 13.824 23.0606 13.816 23.258V25.612C13.8289 25.8274 13.7645 26.0404 13.6346 26.2127C13.5047 26.3851 13.3178 26.5055 13.1071 26.5524C12.8965 26.5994 12.676 26.5698 12.4852 26.4689C12.2944 26.368 12.1458 26.2025 12.066 26.002C12.0486 25.9671 12.0286 25.9337 12.006 25.902V22.999Z" fill="#486F88"/>
<path d="M12.006 29.037C12.32 28.466 12.706 28.259 13.178 28.413C13.3679 28.4673 13.5341 28.5839 13.6498 28.7441C13.7655 28.9042 13.824 29.0986 13.816 29.296V31.65C13.8289 31.8654 13.7645 32.0784 13.6346 32.2507C13.5047 32.4231 13.3178 32.5435 13.1071 32.5905C12.8965 32.6374 12.676 32.6078 12.4852 32.5069C12.2944 32.406 12.1458 32.2405 12.066 32.04C12.0486 32.0052 12.0286 31.9717 12.006 31.94V29.04" fill="#486F88"/>
<path d="M26.56 27.467V23.906C26.5501 23.7845 26.5648 23.6624 26.6032 23.5468C26.6417 23.4312 26.703 23.3245 26.7835 23.2331C26.8641 23.1417 26.9622 23.0675 27.0721 23.0148C27.1819 22.9622 27.3012 22.9322 27.4229 22.9267C27.5446 22.9212 27.6662 22.9403 27.7804 22.9828C27.8945 23.0253 27.999 23.0903 28.0875 23.1741C28.176 23.2578 28.2466 23.3585 28.2953 23.4702C28.344 23.5818 28.3698 23.7021 28.3709 23.824C28.3724 23.8513 28.3724 23.8786 28.3709 23.906V31.032C28.3808 31.1534 28.366 31.2755 28.3276 31.3911C28.2892 31.5068 28.2279 31.6134 28.1474 31.7048C28.0668 31.7962 27.9687 31.8705 27.8589 31.9231C27.749 31.9757 27.6296 32.0057 27.5079 32.0112C27.3862 32.0167 27.2647 31.9977 27.1505 31.9552C27.0363 31.9127 26.9319 31.8476 26.8434 31.7639C26.7549 31.6801 26.6842 31.5794 26.6355 31.4678C26.5868 31.3561 26.5612 31.2358 26.56 31.114C26.5584 31.0867 26.5584 31.0593 26.56 31.032V27.467Z" fill="#486F88"/>
<path d="M20.1609 18.1039H18.9529C18.7129 18.1039 18.4828 18.0086 18.313 17.8389C18.1433 17.6692 18.048 17.439 18.048 17.1989C18.048 16.9589 18.1433 16.7287 18.313 16.559C18.4828 16.3893 18.7129 16.2939 18.9529 16.2939H21.371C21.4898 16.2939 21.6075 16.3174 21.7173 16.3628C21.8271 16.4083 21.9268 16.475 22.0109 16.559C22.0949 16.6431 22.1616 16.7428 22.2071 16.8526C22.2526 16.9624 22.2759 17.0801 22.2759 17.1989C22.2759 17.3178 22.2526 17.4355 22.2071 17.5453C22.1616 17.6551 22.0949 17.7548 22.0109 17.8389C21.9268 17.9229 21.8271 17.9896 21.7173 18.0351C21.6075 18.0805 21.4898 18.1039 21.371 18.1039H20.1619H20.1609Z" fill="#486F88"/>
<path d="M20.143 38.64H18.935C18.7003 38.6322 18.4778 38.5335 18.3146 38.3647C18.1513 38.196 18.0601 37.9703 18.0601 37.7355C18.0601 37.5007 18.1513 37.2751 18.3146 37.1063C18.4778 36.9375 18.7003 36.8388 18.935 36.831C19.7503 36.8257 20.5656 36.8257 21.381 36.831C21.6157 36.8388 21.8381 36.9375 22.0014 37.1063C22.1647 37.2751 22.2559 37.5007 22.2559 37.7355C22.2559 37.9703 22.1647 38.196 22.0014 38.3647C21.8381 38.5335 21.6157 38.6322 21.381 38.64H20.143Z" fill="#486F88"/>
</svg>
