<svg width="13" height="8" viewBox="0 0 13 8" fill="none" xmlns="http://www.w3.org/2000/svg">
<path d="M5.8986 5.3467L6.2523 5.70011L6.6057 5.3464L11.3317 0.616403L11.3325 0.615608C11.3687 0.579173 11.4118 0.550259 11.4593 0.53053C11.5067 0.510802 11.5576 0.500645 11.609 0.500645C11.6604 0.500645 11.7113 0.510801 11.7587 0.53053C11.8059 0.550151 11.8488 0.578856 11.8849 0.61501C11.9585 0.689816 11.9997 0.790549 11.9997 0.895499C11.9997 1.00035 11.9586 1.10098 11.8851 1.17577C11.8848 1.17605 11.8846 1.17633 11.8843 1.17661L6.53208 6.53281C6.53198 6.53291 6.53189 6.533 6.53179 6.5331C6.46038 6.60411 6.36436 6.64492 6.26366 6.64704C6.16568 6.64911 6.07058 6.6144 5.99703 6.54994L0.613159 1.17805L0.613133 1.17803C0.539263 1.10433 0.497694 1.00431 0.49757 0.899966C0.497446 0.795621 0.538778 0.695501 0.612473 0.621632C0.686167 0.547762 0.786189 0.506193 0.890533 0.506069C0.994843 0.505945 1.09493 0.54725 1.16879 0.620899C1.16882 0.620923 1.16884 0.620947 1.16887 0.620971L5.8986 5.3467Z" stroke="#486F88"/>
</svg>
