<svg width="13" height="8" viewBox="0 0 13 8" fill="none" xmlns="http://www.w3.org/2000/svg">
<g clip-path="url(#clip0_3_2)">
<path d="M5.8986 5.3467L6.2523 5.70011L6.6057 5.3464L11.3317 0.616407L11.3325 0.615611C11.3687 0.579176 11.4118 0.550262 11.4593 0.530533C11.5067 0.510805 11.5576 0.500648 11.609 0.500648C11.6604 0.500648 11.7113 0.510804 11.7587 0.530533C11.8059 0.550154 11.8488 0.57886 11.8849 0.615014C11.9585 0.68982 11.9997 0.790553 11.9997 0.895503C11.9997 1.00035 11.9586 1.10098 11.8851 1.17577C11.8848 1.17605 11.8846 1.17633 11.8843 1.17661L6.53208 6.53281C6.53198 6.53291 6.53189 6.533 6.53179 6.5331C6.46038 6.60411 6.36436 6.64492 6.26366 6.64704C6.16568 6.64911 6.07058 6.6144 5.99703 6.54994L0.613163 1.17805L0.613137 1.17803C0.539267 1.10433 0.497698 1.00431 0.497574 0.89997C0.49745 0.795625 0.538782 0.695504 0.612477 0.621635C0.686171 0.547765 0.786193 0.506197 0.890537 0.506073C0.994847 0.505949 1.09493 0.547254 1.16879 0.620903C1.16882 0.620927 1.16884 0.620951 1.16887 0.620975L5.8986 5.3467Z" stroke="#11A1FD"/>
</g>
<defs>
<clipPath id="clip0_3_2">
<rect width="13" height="8" fill="white"/>
</clipPath>
</defs>
</svg>
