<svg width="54" height="54" viewBox="0 0 54 54" fill="none" xmlns="http://www.w3.org/2000/svg">
<path d="M29.916 25.636C29.9465 26.2163 29.8554 26.7966 29.6484 27.3397C29.4414 27.8827 29.1232 28.3765 28.7142 28.7893C28.3051 29.2021 27.8143 29.5248 27.2732 29.7368C26.7321 29.9487 26.1526 30.0452 25.572 30.02C24.3815 30.02 23.2397 29.547 22.3978 28.7052C21.556 27.8633 21.083 26.7215 21.083 25.531C21.083 24.3404 21.556 23.1986 22.3978 22.3568C23.2397 21.5149 24.3815 21.042 25.572 21.042C26.6898 21.0287 27.7692 21.4496 28.583 22.216L27.361 23.391C26.9573 23.0415 26.4611 22.8165 25.9322 22.7431C25.4034 22.6698 24.8646 22.7512 24.381 22.9776C23.8975 23.204 23.4899 23.5656 23.2075 24.0187C22.9251 24.4719 22.7801 24.9972 22.79 25.531C22.7841 26.2754 23.0737 26.9918 23.5952 27.523C24.1167 28.0543 24.8276 28.3571 25.572 28.365C26.1593 28.4065 26.7417 28.2331 27.2106 27.8771C27.6796 27.5211 28.0031 27.0068 28.121 26.43H25.572V24.886H29.846C29.8933 25.1332 29.9167 25.3843 29.916 25.636V25.636Z" fill="#486F88"/>
<path d="M25.5 37C31.8513 37 37 31.8513 37 25.5C37 19.1487 31.8513 14 25.5 14C19.1487 14 14 19.1487 14 25.5C14 31.8513 19.1487 37 25.5 37Z" stroke="#486F88" stroke-width="1.5" stroke-linecap="round" stroke-linejoin="round"/>
<path d="M40.335 40.335L33.921 33.921" stroke="#486F88" stroke-width="1.5" stroke-linecap="round" stroke-linejoin="round"/>
</svg>
