<svg width="126" height="126" viewBox="0 0 126 126" fill="none" xmlns="http://www.w3.org/2000/svg">
<path d="M60.873 124.95L10.377 67.9C8.26406 65.5739 6.45862 62.9861 5.005 60.2C-3.283 44.625 -1.139 24.675 10.377 11.725C16.977 4.2 25.879 0 35.242 0C49.976 0 59.185 9.8 63.022 15.4C66.861 9.8 76.068 0 90.803 0C100.165 0 109.068 4.2 115.667 11.725C127.025 24.675 129.327 44.625 121.039 60.2C119.585 62.9861 117.78 65.5739 115.667 67.9L65.167 124.95C64.9123 125.277 64.5862 125.542 64.2136 125.724C63.8411 125.907 63.4318 126.001 63.017 126.001C62.6022 126.001 62.1929 125.907 61.8203 125.724C61.4477 125.542 61.1217 125.277 60.867 124.95H60.873ZM35.242 7C27.414 7 20.201 10.5 14.675 16.625C5.313 27.3 3.475 43.75 10.224 56.525C11.4651 58.8404 12.9578 61.0119 14.675 63L63.022 117.6L111.369 63C113.125 61.0424 114.621 58.8661 115.82 56.525C122.573 43.575 120.885 27.125 111.369 16.625C108.811 13.6643 105.657 11.2767 102.113 9.61814C98.5691 7.95959 94.7152 7.06745 90.803 7C79.752 7 70.543 13.825 65.632 23.275C65.3926 23.7852 65.0128 24.2167 64.5372 24.5189C64.0615 24.8211 63.5096 24.9816 62.946 24.9816C62.3824 24.9816 61.8305 24.8211 61.3548 24.5189C60.8792 24.2167 60.4994 23.7852 60.26 23.275C55.501 13.825 46.292 7 35.242 7Z" fill="#C4C4C4"/>
<path d="M60.873 124.95L10.377 67.9C8.26406 65.5739 6.45862 62.9861 5.005 60.2C-3.283 44.625 -1.139 24.675 10.377 11.725C16.977 4.2 25.879 0 35.242 0C49.976 0 59.185 9.8 63.022 15.4C66.861 9.8 76.068 0 90.803 0C100.165 0 109.068 4.2 115.667 11.725C127.025 24.675 129.327 44.625 121.039 60.2C119.585 62.9861 117.78 65.5739 115.667 67.9L65.167 124.95C64.9123 125.277 64.5862 125.542 64.2136 125.724C63.8411 125.907 63.4318 126.001 63.017 126.001C62.6022 126.001 62.1929 125.907 61.8203 125.724C61.4477 125.542 61.1217 125.277 60.867 124.95H60.873ZM35.242 7C27.414 7 20.201 10.5 14.675 16.625C5.313 27.3 3.475 43.75 10.224 56.525C11.4651 58.8404 12.9578 61.0119 14.675 63L63.022 117.6L111.369 63C113.125 61.0424 114.621 58.8661 115.82 56.525C122.573 43.575 120.885 27.125 111.369 16.625C108.811 13.6643 105.657 11.2767 102.113 9.61814C98.5691 7.95959 94.7152 7.06745 90.803 7C79.752 7 70.543 13.825 65.632 23.275C65.3926 23.7852 65.0128 24.2167 64.5372 24.5189C64.0615 24.8211 63.5096 24.9816 62.946 24.9816C62.3824 24.9816 61.8305 24.8211 61.3548 24.5189C60.8792 24.2167 60.4994 23.7852 60.26 23.275C55.501 13.825 46.292 7 35.242 7Z" fill="black" fill-opacity="0.2"/>
<path d="M60.873 124.95L10.377 67.9C8.26406 65.5739 6.45862 62.9861 5.005 60.2C-3.283 44.625 -1.139 24.675 10.377 11.725C16.977 4.2 25.879 0 35.242 0C49.976 0 59.185 9.8 63.022 15.4C66.861 9.8 76.068 0 90.803 0C100.165 0 109.068 4.2 115.667 11.725C127.025 24.675 129.327 44.625 121.039 60.2C119.585 62.9861 117.78 65.5739 115.667 67.9L65.167 124.95C64.9123 125.277 64.5862 125.542 64.2136 125.724C63.8411 125.907 63.4318 126.001 63.017 126.001C62.6022 126.001 62.1929 125.907 61.8203 125.724C61.4477 125.542 61.1217 125.277 60.867 124.95H60.873ZM35.242 7C27.414 7 20.201 10.5 14.675 16.625C5.313 27.3 3.475 43.75 10.224 56.525C11.4651 58.8404 12.9578 61.0119 14.675 63L63.022 117.6L111.369 63C113.125 61.0424 114.621 58.8661 115.82 56.525C122.573 43.575 120.885 27.125 111.369 16.625C108.811 13.6643 105.657 11.2767 102.113 9.61814C98.5691 7.95959 94.7152 7.06745 90.803 7C79.752 7 70.543 13.825 65.632 23.275C65.3926 23.7852 65.0128 24.2167 64.5372 24.5189C64.0615 24.8211 63.5096 24.9816 62.946 24.9816C62.3824 24.9816 61.8305 24.8211 61.3548 24.5189C60.8792 24.2167 60.4994 23.7852 60.26 23.275C55.501 13.825 46.292 7 35.242 7Z" fill="black" fill-opacity="0.2"/>
</svg>
