<svg xmlns="http://www.w3.org/2000/svg" viewBox="0 0 1536.83 475.81"><defs><style>.cls-1{fill:#c43638;}.cls-2{fill:#4c4b4d;}.cls-3{fill:#4e4e50;}</style></defs><g id="Layer_2" data-name="Layer 2"><g id="Layer_1-2" data-name="Layer 1"><path class="cls-1" d="M23.59,211.11c-5.79-.3-12.82,3.21-15.75-6.83-2.27-7.82-1.59-12.77,6.12-16.15,2.63-1.15,5.51-2.6,7.23-4.76,2.43-3.05,5.47-6.91,5.41-10.37-.11-5.87.77-13.44-8.27-15.08-2.81-.51-5.39-2.31-8.21-2.84-9.2-1.74-11.39-6.87-9.49-15.72,1.12-5.19,3-7.76,8.18-8.18,3.17-.25,6.3-1.4,9.46-1.46,7.09-.13,10.69-3.25,13-10.26s-.19-11-5.25-14.84c-1.62-1.22-3.07-2.67-4.59-4-7.91-7-8.27-13.49-.72-21.08a8.62,8.62,0,0,1,6.12-1.91c3.43.27,6.79,1.49,10.19,2.27,10.65,2.43,17.3-.73,21.26-10.61.75-1.88.38-4.58-.32-6.61A52.25,52.25,0,0,0,53.15,52.4c-3.75-6.1-3.65-10.61,2.52-15.68C61.54,31.9,66,31.45,71.44,36.5c2.12,2,5,3.16,7,5.17,5.33,5.2,10.13,3.1,15.67.11s7.21-7.07,6.22-12.88c-.39-2.29-.38-4.64-.71-6.94-.94-6.65-.16-11.34,7.87-13.8,7.74-2.38,12.17-.82,15.49,6.11,1.13,2.34,2.86,4.39,4.15,6.66,2.61,4.65,5.68,7.82,11.82,6.45s13.25-.3,14.66-9.17c.41-2.53,1.74-4.91,2.63-7.37,3.92-11,7.77-13,18.85-8.88,2,.72,3.8,3.36,4.49,5.51a44.34,44.34,0,0,1,2.12,12c.22,7.4,4.16,10.26,10.88,12.37s10.42-.59,14-5.26c1.42-1.84,3.29-3.34,4.61-5.24,4.13-5.89,8.47-7.2,15.47-3.63s8.7,7.62,6.22,14.51c-.88,2.44-.84,5.24-1.85,7.61C228,47,232,50.75,237,55.09c5.27,4.55,9.89,5.29,15.61,1.62,1.94-1.25,4.36-1.74,6.28-3,6.45-4.21,11.07-3.33,16.33,2.89s3.5,10.56-.68,15.93c-5.2,6.68-12.74,13.52-4.08,22.5,2.62,2.72,6.75,4.38,10.5,5.48,2.61.76,5.74-.37,8.64-.5,10.61-.48,14.65,3,15,13.79.08,2.17-1.41,4.93-3.06,6.47-2.5,2.35-5.78,3.87-8.72,5.75-4.83,3.11-10,5.4-8.88,13.22s2.72,14.15,11.78,15.57c2,.31,3.8,1.47,5.76,2,6.17,1.62,9.95,3.91,9.19,11.93s-3.48,11.65-11.21,12.1c-2.89.17-5.74,1.06-8.63,1.19-6.72.3-9.1,4.26-10.93,10.26s-.88,10,4,13.59c2.11,1.54,3.81,3.64,5.92,5.16,6.09,4.37,7.48,8.94,3.76,16.26s-8.69,7.34-15,5.47c-8.85-2.6-17.18-5-23.34,5.67-2.66,4.61-3.9,8.08-1.23,12.7,1.31,2.25,2,4.93,3.45,7,5.81,8.17,3.12,14.26-4.87,18.28-2.75,1.38-6.91,1.32-10,.38s-5.93-3.62-8.56-5.9c-5.2-4.5-9.86-5.21-16.46-1.59-6.86,3.76-7.78,8.61-6.85,15.11.29,2,.35,4.06.7,6.07,1,6.15-.1,10.41-7.11,12.6s-12.3,3-15.76-4.87c-1.16-2.63-3.33-4.82-4.5-7.46-3.16-7.14-8.91-6.92-15.35-6.38s-10.23,3.27-11.59,9.62c-.55,2.53-2.16,4.86-2.56,7.4-1.38,8.88-7,9.49-14.58,9.08-8.39-.45-8.75-5.85-9.55-11.82-1.14-8.52-.88-18.45-13.18-18.87-3.54-.12-7.43,1.35-10.64,3.07-2.41,1.29-4,4.11-6,6.28-8.1,9-9.42,9.42-19.44,2.39-2.15-1.51-3.38-5.39-3.62-8.3s1-6.27,2-9.31c2.18-7,1.51-12.07-5.07-17.3S62.7,252,56.46,255.79c-1.73,1-3.86,1.47-5.51,2.61-6.06,4.19-10.15,2.44-14.68-3s-5.94-9.67-.66-15a22.12,22.12,0,0,0,2.53-3.55c3.68-5.57,9.73-10.11,4-18.35C36.82,211,37.47,210.49,23.59,211.11Zm196.17-54.25c.17-35-27.26-63-61.89-63.14S95.22,120.91,95,155c-.28,35.15,27,63.33,61.45,63.56C191.5,218.75,219.59,191.41,219.76,156.86Z"/><path class="cls-2" d="M1264.59,107l30-42.61,24.56,12c-12.53,17.41-30.3,26.26-48.08,36.58,2.47,3.16,4.54,5.84,6.63,8.5,30.5,38.71,30.34,97.14-.92,135.12-18.7,22.73-43.68,34.3-72.61,37.13-36.34,3.56-70.6-1.75-97.83-28.69-32.5-32.16-39.48-71.43-25.19-113.38,14-41,44.49-64.24,87.8-69.57C1203.07,77.92,1235,83.63,1264.59,107ZM1187.4,285.25c20.44,0,32.89-5.49,44.8-20.78a94.26,94.26,0,0,0,12.43-20.85c10.77-25.32,12.09-51.76,7.56-78.64-3.84-22.83-11.9-43.72-29-60.15-20.56-19.8-51.87-19.43-72.2.6-21.19,20.89-28.42,47.51-30.3,75.91-1.82,27.53,2.68,54,18.69,77.29C1151.12,275.66,1166.8,286.13,1187.4,285.25Z"/><path class="cls-2" d="M1086.56,365.7c-4.18-11.35-9.71-21-11.06-31.18-3-22.28,10.37-37.21,27.06-49.2,2.4-1.72,7.75.65,11.44,1.1.14,2.08.42,2.78.19,3.16-11,17.95-1,32.19,18.55,34.3a131.86,131.86,0,0,0,13.9.92c30.26.08,60.52-.4,90.77.27a155.79,155.79,0,0,1,34.33,4.83c49.39,12.44,51.78,67.38,33.4,93.83-10.46,15.06-24.59,25.6-40.87,33.07-47.64,21.87-97,24.24-147.07,10.34-22.89-6.35-41.41-19.05-46.22-44.69-3.41-18.17-.69-35.31,10.68-50.48C1083.73,369.21,1085.91,366.53,1086.56,365.7Zm9.18,2.29c-28.16,28.1-19.83,70.61,16,85.91,16.85,7.19,34.73,8.92,52.82,9.37,34.87.86,68.56-3.77,98.4-23.34a64.87,64.87,0,0,0,18.75-18.88c10.64-16.82,2.86-34.19-16.53-38.83a72,72,0,0,0-16.38-1.81c-33.14-.16-66.28-.36-99.42,0C1130.53,380.65,1112.21,379.33,1095.74,368Z"/><path class="cls-2" d="M1043.72,185.45c2.67,50.05-35.31,97.63-95.71,105.66-39.49,5.25-74.48-5.31-102.64-34.1C797.53,208.11,808.52,106.75,898,84.19a131.6,131.6,0,0,1,78.82,4C1017.41,103,1045.86,141.3,1043.72,185.45Zm-182-.71c1.39,28.45,7.47,56.84,28,80.05,22.48,25.38,55.08,26.2,79,2.43,37.32-37.06,41.61-115.6,8.56-156.53-25.57-31.66-66.68-31.74-92,.08C868.45,131.91,862.92,156.91,861.72,184.74Z"/><path class="cls-3" d="M338.24,396.6c.89,10.67-3.41,15.71-14.4,16.1-1.82.07-4.22-1.59-5.48-3.15-2.73-3.38-4.88-7.22-7.3-10.85-7.17-10.76-19-11.56-27.37-1.87-1.53,1.76-3,3.54-4.55,5.3-7.21,8.39-13.17,8.88-21.51,1.3-1.35-1.24-2-4-1.86-5.95.33-4,1.46-8,2.23-12,2.72-14.28-4.94-22.82-19.23-21.48-2,.19-4.06.33-6.09.44-10.15.55-16.34-5.1-15.86-15,.09-1.86,2-4,3.65-5.33,3.41-2.7,7.22-4.88,10.84-7.32,10.06-6.75,10.87-19,1.8-26.88-1.76-1.53-3.55-3-5.33-4.52-8.91-7.54-9.45-12.39-1.7-21.39,1.34-1.56,4.48-2.37,6.7-2.22,4,.29,7.95,1.59,11.94,2.41,12.82,2.63,22.87-6.44,21.52-19.43-.21-2-.55-4-.73-6.06-.91-10.33,4.3-16.07,14.84-15.77,1.9.05,4.24,1.65,5.52,3.23,2.73,3.38,4.87,7.22,7.29,10.85,6.49,9.72,19.44,10.69,27.09,2,1.54-1.74,3-3.54,4.53-5.31,7.21-8.4,13.91-9,21.61-1.32,1.48,1.48,1.95,4.69,1.74,7-.38,4.31-1.62,8.55-2.49,12.82-2,9.89,6.21,19.64,16.4,19.41,2.62-.05,5.24-.24,7.84-.48,12.65-1.14,12.44-1.09,16.17,11,1.49,4.83.27,7.72-3.93,10.06-3.29,1.85-6.39,4-9.54,6.14a16.67,16.67,0,0,0-2,26.47,67.06,67.06,0,0,0,6.6,5.7c5.85,4,7.51,8.13,4.06,15.33-3.58,7.45-7.94,8.7-15.14,6.7-7.62-1.45-15.94-4.15-22.75,3.61C335.26,382.4,338.1,394.86,338.24,396.6Zm-9-69c-.07-14.74-12.88-27.26-27.55-26.93s-26.61,12.6-26.56,27a27.26,27.26,0,0,0,27.48,26.89C317,354.25,329.3,341.83,329.23,327.56Z"/><path class="cls-2" d="M1486.62,95.51H1357c-.21-3.23-.38-6-.59-9.23h180.46L1400.64,277.61h129.59c.23,3.48.41,6.19.63,9.47H1346.24Z"/><path class="cls-2" d="M786.34,251.6c1.88,2.19,3.72,4.33,5.5,6.42C765,292.57,694.43,308,646.33,268.3c-45.51-37.52-50.41-108.46-10.46-152.92C674,73,749.06,67.48,786.59,104.77L780.94,111c.18-.83.37-1.66.55-2.49-13.81-5.56-27.35-12-41.53-16.42C726.58,88,713.41,92,701.27,98.26c-62.11,32.2-68.71,128.9-11.65,169.35,22.3,15.81,49.68,16.72,72.77,1.89C770.18,264.5,777.27,258.43,786.34,251.6Z"/><path class="cls-2" d="M536.27,86.05h34.47V287.13H536.27Z"/><path class="cls-2" d="M530.23,24.89C530.3,11.05,540,1.66,554,1.79,567.1,1.9,577,11.93,577,25.07a23,23,0,0,1-23.11,23.29C540.13,48.43,530.16,38.52,530.23,24.89Z"/><ellipse class="cls-2" cx="451.49" cy="200.66" rx="0.97" ry="282.34"/></g></g></svg>