<svg width="54" height="54" viewBox="0 0 54 54" fill="none" xmlns="http://www.w3.org/2000/svg">
<path d="M28.348 30.688C28.7394 30.9882 29.1503 31.2622 29.578 31.508C30.1469 31.4409 30.7192 31.4075 31.292 31.408C32.7273 31.408 33.5917 31.6473 33.885 32.126C33.9621 32.237 34.0057 32.3677 34.0109 32.5027C34.016 32.6378 33.9824 32.7714 33.914 32.888C33.9136 32.8936 33.912 32.899 33.9094 32.904C33.9069 32.909 33.9033 32.9134 33.899 32.917L33.87 32.946V32.961C33.8113 33.3323 33.4647 33.518 32.83 33.518C32.2573 33.5007 31.6899 33.402 31.145 33.225C30.4882 33.0279 29.852 32.768 29.245 32.449C27.2917 32.6394 25.3658 33.0473 23.503 33.665C22.0063 36.219 20.8233 37.496 19.954 37.496C19.8111 37.4976 19.6701 37.4632 19.544 37.396L19.192 37.22C19.182 37.21 19.1527 37.1857 19.104 37.147C19.05 37.0717 19.0139 36.9851 18.9987 36.8937C18.9834 36.8024 18.9894 36.7087 19.016 36.62C19.173 36.1118 19.4549 35.6511 19.836 35.28C20.3957 34.7022 21.0497 34.224 21.77 33.866C21.7962 33.8442 21.8272 33.8289 21.8604 33.8215C21.8937 33.814 21.9282 33.8147 21.9612 33.8233C21.9941 33.8319 22.0245 33.8482 22.0499 33.871C22.0753 33.8937 22.0949 33.9222 22.107 33.954C22.1156 33.9614 22.1225 33.9704 22.1275 33.9805C22.1325 33.9907 22.1354 34.0017 22.136 34.013C22.644 33.183 23.1663 32.221 23.703 31.127C24.328 29.8974 24.8378 28.6126 25.226 27.289C24.999 26.5273 24.8492 25.7447 24.779 24.953C24.7092 24.3291 24.743 23.6979 24.879 23.085C24.9863 22.6943 25.1913 22.499 25.494 22.499H25.816C25.9128 22.4928 26.0096 22.5095 26.0988 22.5478C26.1879 22.586 26.2668 22.6446 26.329 22.719C26.4242 22.8653 26.4855 23.031 26.5083 23.204C26.5311 23.3771 26.515 23.553 26.461 23.719C26.4497 23.7617 26.4296 23.8015 26.402 23.836C26.4131 23.874 26.4181 23.9134 26.417 23.953V24.392C26.4178 25.3334 26.3493 26.2736 26.212 27.205C26.5839 28.5446 27.3251 29.7526 28.351 30.691L28.348 30.688ZM19.91 36.709C20.7545 36.1098 21.4428 35.3165 21.917 34.396C21.4472 34.7592 21.0174 35.1716 20.635 35.626C20.3459 35.9529 20.1021 36.3171 19.91 36.709V36.709ZM25.74 23.232C25.5855 23.8663 25.5756 24.5273 25.711 25.166C25.721 25.0993 25.7543 24.8843 25.811 24.521C25.811 24.4917 25.8443 24.2817 25.911 23.891C25.9227 23.8484 25.9427 23.8086 25.97 23.774C25.9657 23.7704 25.9622 23.766 25.9596 23.761C25.957 23.756 25.9554 23.7506 25.955 23.745C25.9554 23.741 25.9549 23.7371 25.9537 23.7333C25.9525 23.7295 25.9506 23.726 25.948 23.723C25.9454 23.72 25.9435 23.7165 25.9423 23.7127C25.9411 23.7089 25.9407 23.7049 25.941 23.701C25.9396 23.5088 25.8726 23.3229 25.751 23.174C25.7506 23.1796 25.749 23.185 25.7464 23.19C25.7439 23.195 25.7403 23.1994 25.736 23.203V23.232H25.74ZM23.924 32.915C25.2672 32.3804 26.6609 31.9827 28.084 31.728C28.0182 31.6851 27.9548 31.6387 27.894 31.589C27.8122 31.527 27.734 31.4602 27.66 31.389C26.8687 30.6672 26.2354 29.7895 25.8 28.811C25.4717 29.8036 25.0644 30.7684 24.582 31.696C24.2893 32.2427 24.0697 32.648 23.923 32.912L23.924 32.915ZM33.387 32.681C32.7547 32.3588 32.0395 32.236 31.336 32.329C31.9139 32.5671 32.5279 32.7057 33.152 32.739C33.2403 32.7422 33.3287 32.7372 33.416 32.724C33.416 32.714 33.4063 32.6993 33.387 32.68V32.681Z" fill="#486E87"/>
<path d="M29.688 11H17.138C16.7259 10.9999 16.3178 11.0809 15.937 11.2386C15.5562 11.3963 15.2102 11.6274 14.9188 11.9188C14.6274 12.2102 14.3963 12.5562 14.2386 12.937C14.0809 13.3178 13.9999 13.7259 14 14.138V39.238C13.9999 39.6501 14.0809 40.0582 14.2386 40.439C14.3963 40.8198 14.6274 41.1658 14.9188 41.4572C15.2102 41.7486 15.5562 41.9798 15.937 42.1374C16.3178 42.2951 16.7259 42.3761 17.138 42.376H35.964C36.3761 42.3761 36.7842 42.2951 37.165 42.1374C37.5458 41.9798 37.8918 41.7486 38.1832 41.4572C38.4746 41.1658 38.7058 40.8198 38.8634 40.439C39.0211 40.0582 39.1021 39.6501 39.102 39.238V20.413L29.688 11Z" stroke="#486F88" stroke-width="1.5" stroke-linecap="round" stroke-linejoin="round"/>
<path d="M29.689 11V20.413H39.102" stroke="#486F88" stroke-width="1.5" stroke-linecap="round" stroke-linejoin="round"/>
</svg>
