<svg xmlns="http://www.w3.org/2000/svg" width="54" height="54" viewBox="0 0 54 54">
  <g id="Group_577" data-name="Group 577" transform="translate(-294 -818)">
    <g id="Group_571" data-name="Group 571">
      <g id="Group_560" data-name="Group 560">
        <rect id="Rectangle_230" data-name="Rectangle 230" width="54" height="54" transform="translate(294 818)" fill="none"/>
        <g id="Group_546" data-name="Group 546">
          <g id="Ellipse_43" data-name="Ellipse 43" transform="matrix(-0.259, -0.966, 0.966, -0.259, 308.418, 868.158)" fill="none" stroke="#486f88" stroke-linecap="round" stroke-width="1.5" stroke-dasharray="40 80">
            <circle cx="18.5" cy="18.5" r="18.5" stroke="none"/>
            <circle cx="18.5" cy="18.5" r="17.75" fill="none"/>
          </g>
          <path id="Path_292" data-name="Path 292" d="M-3308.583-792.583l-1.917,3.167-3.5-2.083" transform="translate(3615 1640)" fill="none" stroke="#486f88" stroke-linecap="round" stroke-linejoin="round" stroke-width="1.5"/>
          <path id="Path_293" data-name="Path 293" d="M-3308.583-792.583l-1.917,3.167-3.5-2.083" transform="matrix(-0.998, 0.07, -0.07, -0.998, -3019.694, 282.911)" fill="none" stroke="#486f88" stroke-linecap="round" stroke-linejoin="round" stroke-width="1.5"/>
          <g id="Ellipse_44" data-name="Ellipse 44" transform="matrix(0.259, 0.966, -0.966, 0.259, 334.582, 822.842)" fill="none" stroke="#486f88" stroke-linecap="round" stroke-width="1.5" stroke-dasharray="40 80">
            <circle cx="18.5" cy="18.5" r="18.5" stroke="none"/>
            <circle cx="18.5" cy="18.5" r="17.75" fill="none"/>
          </g>
          <g id="Path_294" data-name="Path 294" transform="translate(313 837)" fill="none">
            <path d="M8.5,0A8.5,8.5,0,1,1,0,8.5,8.5,8.5,0,0,1,8.5,0Z" stroke="none"/>
            <path d="M 8.5 1.5 C 4.640190124511719 1.5 1.5 4.640190124511719 1.5 8.5 C 1.5 12.35980987548828 4.640190124511719 15.5 8.5 15.5 C 12.35980987548828 15.5 15.5 12.35980987548828 15.5 8.5 C 15.5 4.640190124511719 12.35980987548828 1.5 8.5 1.5 M 8.5 0 C 13.19441986083984 0 17 3.805580139160156 17 8.5 C 17 13.19441986083984 13.19441986083984 17 8.5 17 C 3.805580139160156 17 0 13.19441986083984 0 8.5 C 0 3.805580139160156 3.805580139160156 0 8.5 0 Z" stroke="none" fill="#486f88"/>
          </g>
          <line id="Line_119" data-name="Line 119" y2="5.418" transform="translate(321.387 835.438)" fill="none" stroke="#486f88" stroke-linecap="round" stroke-width="1.5"/>
          <line id="Line_122" data-name="Line 122" y2="5.418" transform="translate(332.063 845.5) rotate(90)" fill="none" stroke="#486f88" stroke-linecap="round" stroke-width="1.5"/>
          <line id="Line_120" data-name="Line 120" y2="5.418" transform="translate(321.387 850.583)" fill="none" stroke="#486f88" stroke-linecap="round" stroke-width="1.5"/>
          <line id="Line_121" data-name="Line 121" y2="5.418" transform="translate(316.356 845.5) rotate(90)" fill="none" stroke="#486f88" stroke-linecap="round" stroke-width="1.5"/>
        </g>
      </g>
    </g>
  </g>
</svg>
