<svg xmlns="http://www.w3.org/2000/svg" width="29.627" height="29.627" viewBox="0 0 29.627 29.627">
  <g id="Group_109" data-name="Group 109" transform="translate(-983.962 -466.585)">
    <path id="Path_124" data-name="Path 124" d="M542.349,103.194a3.836,3.836,0,1,1-3.835-3.835A3.835,3.835,0,0,1,542.349,103.194Z" transform="translate(460.261 378.204)" fill="none" stroke="#486f88" stroke-linecap="round" stroke-linejoin="round" stroke-width="1.5"/>
    <path id="Path_125" data-name="Path 125" d="M550.929,109.985a2.109,2.109,0,0,0,.422,2.327l.077.076a2.559,2.559,0,0,1-3.618,3.619l-.077-.077a2.13,2.13,0,0,0-3.6,1.509v.218a2.557,2.557,0,0,1-5.115,0v-.115a2.213,2.213,0,0,0-3.707-1.509l-.077.077a2.558,2.558,0,0,1-3.617-3.619l.076-.077a2.13,2.13,0,0,0-1.509-3.6h-.217a2.557,2.557,0,0,1,0-5.115h.115a2.211,2.211,0,0,0,1.5-3.707l-.076-.077a2.56,2.56,0,1,1,3.623-3.617l.076.076a2.109,2.109,0,0,0,2.327.422h.1a2.111,2.111,0,0,0,1.28-1.931v-.217a2.557,2.557,0,0,1,5.114,0v.115a2.13,2.13,0,0,0,3.606,1.508l.076-.076a2.559,2.559,0,0,1,3.619,3.619l-.077.076a2.11,2.11,0,0,0-.426,2.327v.1a2.112,2.112,0,0,0,1.935,1.28h.218a2.557,2.557,0,1,1,0,5.113h-.115A2.108,2.108,0,0,0,550.929,109.985Z" transform="translate(457.307 375.249)" fill="none" stroke="#486f88" stroke-linecap="round" stroke-linejoin="round" stroke-width="1.5"/>
  </g>
</svg>
