<svg width="54" height="54" viewBox="0 0 54 54" fill="none" xmlns="http://www.w3.org/2000/svg">
<path d="M43 27.25C43 30.3651 42.0763 33.4102 40.3457 36.0002C38.615 38.5903 36.1552 40.609 33.2773 41.8011C30.3993 42.9932 27.2325 43.3051 24.1773 42.6974C21.1221 42.0897 18.3158 40.5896 16.1131 38.3869C13.9104 36.1843 12.4104 33.3779 11.8026 30.3227C11.1949 27.2675 11.5068 24.1007 12.6989 21.2227C13.891 18.3448 15.9097 15.885 18.4998 14.1544C21.0899 12.4237 24.135 11.5 27.25 11.5C31.4272 11.5 35.4332 13.1594 38.3869 16.1131C41.3406 19.0668 43 23.0728 43 27.25V27.25Z" stroke="#486F88" stroke-width="1.5" stroke-linecap="round" stroke-linejoin="round"/>
<path d="M20.95 30.4C21.714 31.3448 22.6716 32.1149 23.7584 32.6583C24.8451 33.2017 26.0358 33.5057 27.25 33.55C28.4642 33.5057 29.6549 33.2017 30.7416 32.6583C31.8284 32.1149 32.7861 31.3448 33.55 30.4" stroke="#486F88" stroke-width="1.5" stroke-linecap="round" stroke-linejoin="round"/>
<path d="M22.525 22.525H22.541" stroke="#486F88" stroke-width="3" stroke-linecap="round" stroke-linejoin="round"/>
<path d="M31.975 22.525H31.991" stroke="#486F88" stroke-width="3" stroke-linecap="round" stroke-linejoin="round"/>
</svg>
