<svg xmlns="http://www.w3.org/2000/svg" width="35.865" height="29.625" viewBox="0 0 35.865 29.625">
  <g id="Group_94" data-name="Group 94" transform="translate(-451.198 -342.706)">
    <path id="Path_92" data-name="Path 92" d="M173.57,26.71V23.576a6.248,6.248,0,0,0-6.248-6.248h-12.5a6.248,6.248,0,0,0-6.248,6.248V26.71" transform="translate(303.372 344.872)" fill="none" stroke="#486f88" stroke-linecap="round" stroke-linejoin="round" stroke-width="1.5"/>
    <path id="Path_93" data-name="Path 93" d="M165.516,10.248A6.249,6.249,0,1,1,159.268,4h0A6.248,6.248,0,0,1,165.516,10.248Z" transform="translate(305.177 339.456)" fill="none" stroke="#486f88" stroke-linecap="round" stroke-linejoin="round" stroke-width="1.5"/>
    <path id="Path_94" data-name="Path 94" d="M174.366,26.644V23.515a6.248,6.248,0,0,0-4.687-6.035" transform="translate(311.947 344.933)" fill="none" stroke="#486f88" stroke-linecap="round" stroke-linejoin="round" stroke-width="1.5"/>
    <path id="Path_95" data-name="Path 95" d="M165.238,4.144a6.25,6.25,0,0,1,0,12.106" transform="translate(310.143 339.514)" fill="none" stroke="#486f88" stroke-linecap="round" stroke-linejoin="round" stroke-width="1.5"/>
  </g>
</svg>
